<?xml version="1.0" encoding="UTF-8"?>
<svg version="1.1" xmlns="http://www.w3.org/2000/svg" width="96" height="96">
<path d="M0 0 C0 3.3 0 6.6 0 10 C-10.23 13.96 -20.46 17.92 -31 22 C-27.90859682 24.06093545 -25.04105143 25.25551845 -21.58203125 26.6015625 C-20.96478683 26.8428891 -20.34754242 27.0842157 -19.71159363 27.33285522 C-17.74651974 28.10026323 -15.7795566 28.86269047 -13.8125 29.625 C-12.47708578 30.14550565 -11.14179779 30.66633531 -9.80664062 31.1875 C-6.53921501 32.46209145 -3.27007702 33.73222408 0 35 C0 33.35 0 31.7 0 30 C2.97 30 5.94 30 9 30 C9.66 31.32 10.32 32.64 11 34 C14.05136013 36.3472001 17.36719966 36.40546269 21.09375 36.3359375 C23.98233409 35.82688375 25.28836028 34.28218629 27 32 C26.505 30.515 26.505 30.515 26 29 C24.04309081 28.10917448 24.04309081 28.10917448 21.625 27.5625 C6.85510088 23.46682395 6.85510088 23.46682395 2.3125 19.875 C0.34207669 15.55883466 0.11517313 11.65463549 1 7 C2.69624851 3.88290864 4.77858175 1.61070912 8 0 C11.24252765 -0.31781599 14.49380579 -0.3242661 17.75 -0.375 C19.09191406 -0.43107422 19.09191406 -0.43107422 20.4609375 -0.48828125 C24.89748242 -0.54717344 28.01692667 -0.49765819 31.5546875 2.36328125 C35.19689262 6.2905791 36 8.66825457 36 14 C32.7 14 29.4 14 26 14 C25.5978125 12.7934375 25.5978125 12.7934375 25.1875 11.5625 C24.5996875 10.2940625 24.5996875 10.2940625 24 9 C20.47005387 7.82335129 17.70544587 7.80149397 14 8 C13.01 8.66 12.02 9.32 11 10 C10.74969023 12.58380177 10.74969023 12.58380177 11 15 C12.14597656 15.24234375 13.29195312 15.4846875 14.47265625 15.734375 C16.00273887 16.07230736 17.53267941 16.41088344 19.0625 16.75 C20.19075195 16.98589844 20.19075195 16.98589844 21.34179688 17.2265625 C27.64686864 18.64588601 33.26580657 20.39870985 37 26 C37.64795964 30.34473993 37.97893513 34.94504526 36.0546875 38.984375 C33.48071082 42.25445858 30.89899791 43.80113915 27 45 C24.30649927 45.21447731 21.75184159 45.32498534 19.0625 45.3125 C18.02706055 45.33666992 18.02706055 45.33666992 16.97070312 45.36132812 C10.98595509 45.36700087 7.00635217 43.84795594 2.625 39.8125 C2.08875 39.214375 1.5525 38.61625 1 38 C0.67 40.64 0.34 43.28 0 46 C-8.48325902 43.3701897 -16.58495879 39.90332565 -24.75 36.4375 C-26.84900523 35.55023933 -28.94840655 34.66392215 -31.0479126 33.77784729 C-32.94242454 32.97770797 -34.83598662 32.17532071 -36.72949219 31.37280273 C-39.47472242 30.2204864 -42.23567649 29.1057294 -45 28 C-45 24.37 -45 20.74 -45 17 C-39.39986485 14.56737589 -33.79478626 12.14666936 -28.18481445 9.73681641 C-26.27748701 8.91552267 -24.37154578 8.0910018 -22.46704102 7.26318359 C-19.72771378 6.07316556 -16.98359477 4.8948802 -14.23828125 3.71875 C-12.96456413 3.16096863 -12.96456413 3.16096863 -11.66511536 2.59191895 C-10.86466293 2.25156616 -10.06421051 1.91121338 -9.23950195 1.56054688 C-8.54000931 1.2585437 -7.84051666 0.95654053 -7.11982727 0.64538574 C-5 0 -5 0 0 0 Z " fill="#FFFFFF" transform="translate(50,0)"/>
<path d="M0 0 C4.846875 -0.061875 9.69375 -0.12375 14.6875 -0.1875 C16.96853638 -0.22846802 16.96853638 -0.22846802 19.2956543 -0.27026367 C21.1041687 -0.28150269 21.1041687 -0.28150269 22.94921875 -0.29296875 C24.79519653 -0.31653442 24.79519653 -0.31653442 26.6784668 -0.34057617 C31.33720084 0.137111 33.84127163 1.99785655 37.3125 5 C39.87713064 9.55934336 39.77735492 13.88739651 39 19 C37.91274463 21.45569748 36.77721634 22.94509361 35 25 C35.99 25.99 36.98 26.98 38 28 C39.98 18.76 41.96 9.52 44 0 C46.31 0 48.62 0 51 0 C50.36203784 5.69091248 49.41115675 11.2126974 48.1875 16.8046875 C48.01371826 17.60987823 47.83993652 18.41506897 47.66088867 19.24465942 C47.29612148 20.93072493 46.92964489 22.61642147 46.56152344 24.30175781 C45.99723454 26.88767301 45.43965924 29.47497316 44.8828125 32.0625 C44.5264372 33.70581499 44.1696801 35.34904725 43.8125 36.9921875 C43.64580811 37.76609833 43.47911621 38.54000916 43.30737305 39.33737183 C42.1153125 44.769375 42.1153125 44.769375 41 47 C36.71 47 32.42 47 28 47 C27.65820312 42.06835938 27.65820312 42.06835938 27.31640625 37.13671875 C27.1132629 33.97409042 27.1132629 33.97409042 26 31 C22.68455701 29.89485234 19.79589889 29.67892369 16.3125 29.4375 C14.229375 29.293125 12.14625 29.14875 10 29 C10 34.94 10 40.88 10 47 C6.7 47 3.4 47 0 47 C0 31.49 0 15.98 0 0 Z M10 9 C10 12.96 10 16.92 10 21 C12.22855574 21.0814222 14.45797655 21.13938079 16.6875 21.1875 C17.92886719 21.22230469 19.17023437 21.25710937 20.44921875 21.29296875 C24.22876229 20.98112522 26.0905257 20.40443348 29 18 C29.58342353 14.45769191 29.58342353 14.45769191 29 11 C27.00896808 8.56164332 27.00896808 8.56164332 23.0859375 8.8046875 C21.51550649 8.81799624 19.94513779 8.84186398 18.375 8.875 C17.57320312 8.88402344 16.77140625 8.89304687 15.9453125 8.90234375 C13.96341477 8.92593777 11.98167019 8.96180935 10 9 Z " fill="#FFFFFF" transform="translate(8,49)"/>
<path d="M0 0 C5.94615694 1.63963796 11.03522078 4.62375462 16.375 7.625 C17.30183594 8.140625 18.22867188 8.65625 19.18359375 9.1875 C21.45829425 10.45382811 23.73028792 11.72475925 26 13 C26 15.97 26 18.94 26 22 C22.04533792 24.17341896 18.08568659 26.33758201 14.125 28.5 C12.99707031 29.12003906 11.86914062 29.74007812 10.70703125 30.37890625 C9.63066406 30.96542969 8.55429688 31.55195312 7.4453125 32.15625 C6.45031738 32.70087891 5.45532227 33.24550781 4.43017578 33.80664062 C2 35 2 35 0 35 C0 32.36 0 29.72 0 27 C5.61 24.03 11.22 21.06 17 18 C13.47830949 15.35873212 10.124404 13.36593412 6.25 11.3125 C5.34701172 10.83200195 5.34701172 10.83200195 4.42578125 10.34179688 C2.95211989 9.5581833 1.47627806 8.77867267 0 8 C0 5.36 0 2.72 0 0 Z " fill="#FFFFFF" transform="translate(61,54)"/>
</svg>
